<svg width="32" height="31" viewBox="0 0 32 31" fill="none" xmlns="http://www.w3.org/2000/svg">
<path d="M15.8012 30.5767C13.9208 30.3487 12.0533 29.8483 10.1986 29.0756C8.34398 28.3029 6.67734 27.1863 5.19871 25.7258C3.72009 24.2653 2.50802 22.4176 1.56251 20.1826C0.616997 17.9475 0.106845 15.2584 0.0320536 12.1153L0 10.6089L1.47434 10.641C2.7628 10.673 4.18106 10.9097 5.72914 11.3509C7.27722 11.7921 8.65596 12.3952 9.86536 13.1602C10.1025 10.9209 10.7393 8.59506 11.7756 6.18267C12.8119 3.77028 14.0576 1.70939 15.5127 0C16.9679 1.70939 18.2136 3.77563 19.2499 6.1987C20.2862 8.62177 20.9229 10.953 21.1601 13.1923C22.3375 12.4594 23.6895 11.8589 25.2162 11.391C26.7429 10.923 28.1772 10.673 29.5191 10.641L31.0255 10.6089L30.9934 12.1473C30.9507 14.9913 30.5287 17.4747 29.7274 19.5976C28.9261 21.7204 27.845 23.5228 26.4839 25.0046C25.1228 26.4864 23.532 27.6803 21.7115 28.5863C19.891 29.4923 17.9209 30.1558 15.8012 30.5767V30.5767M15.7499 28.0255C15.4444 23.4144 14.0763 19.9283 11.6458 17.5672C9.21522 15.2061 6.19438 13.7477 2.58327 13.1922C2.88883 17.9422 4.29855 21.4838 6.81244 23.8172C9.32633 26.1505 12.3055 27.5533 15.7499 28.0255V28.0255M15.5127 18.532C15.908 17.8781 16.4016 17.1981 16.9935 16.4919C17.5854 15.7857 18.1751 15.1858 18.7627 14.6922C18.7285 13.0448 18.4267 11.3252 17.8573 9.53356C17.2878 7.74189 16.5063 6.01058 15.5127 4.33964C14.5191 6.01058 13.7376 7.74189 13.1682 9.53356C12.5987 11.3252 12.2969 13.0448 12.2627 14.6922C12.8503 15.1858 13.4417 15.7857 14.0368 16.4919C14.6319 17.1981 15.1238 17.8781 15.5127 18.532V18.532M18.2499 27.3717C19.4166 26.9849 20.5768 26.4507 21.7307 25.7691C22.8845 25.0875 23.9379 24.19 24.8909 23.0768C25.8439 21.9635 26.642 20.5981 27.2852 18.9806C27.9283 17.3631 28.314 15.4336 28.4422 13.1922C25.7884 13.5811 23.4433 14.4892 21.4069 15.9165C19.3706 17.3439 17.8567 19.1259 16.8653 21.2627C17.1986 22.1516 17.478 23.0864 17.7034 24.0672C17.9288 25.0479 18.111 26.1494 18.2499 27.3717V27.3717M15.5127 18.532V18.532V18.532V18.532V18.532V18.532V18.532V18.532V18.532V18.532M18.2499 27.3717V27.3717V27.3717V27.3717V27.3717V27.3717V27.3717V27.3717V27.3717V27.3717M15.7499 28.0255V28.0255V28.0255V28.0255V28.0255V28.0255M16.8653 21.2627V21.2627V21.2627V21.2627V21.2627V21.2627V21.2627V21.2627V21.2627V21.2627V21.2627V21.2627V21.2627M15.8012 30.5767V30.5767V30.5767V30.5767V30.5767V30.5767V30.5767V30.5767V30.5767V30.5767V30.5767V30.5767V30.5767V30.5767V30.5767V30.5767V30.5767V30.5767V30.5767V30.5767V30.5767" fill="#061B0E"/>
</svg>
