<svg width="26" height="23" viewBox="0 0 26 23" fill="none" xmlns="http://www.w3.org/2000/svg">
<path d="M12.6666 22.9024L11.1949 21.5794C8.9846 19.5743 7.15683 17.8512 5.71153 16.4102C4.26623 14.9692 3.12093 13.6867 2.27564 12.5627C1.43034 11.4388 0.839742 10.4136 0.503845 9.48712C0.167948 8.56063 0 7.62046 0 6.66662C0 4.77432 0.63803 3.19015 1.91409 1.91409C3.19015 0.63803 4.77432 0 6.66662 0C7.83072 0 8.93072 0.272224 9.96662 0.816673C11.0025 1.36112 11.9025 2.1419 12.6666 3.159C13.4307 2.1419 14.3307 1.36112 15.3666 0.816673C16.4025 0.272224 17.5025 0 18.6666 0C20.5589 0 22.1431 0.63803 23.4191 1.91409C24.6952 3.19015 25.3332 4.77432 25.3332 6.66662C25.3332 7.62046 25.1653 8.56063 24.8294 9.48712C24.4935 10.4136 23.9029 11.4388 23.0576 12.5627C22.2123 13.6867 21.0691 14.9692 19.6281 16.4102C18.1871 17.8512 16.3572 19.5743 14.1384 21.5794L12.6666 22.9024V22.9024M12.6666 20.2C14.8 18.2803 16.5555 16.635 17.9333 15.2641C19.3111 13.8931 20.4 12.7021 21.2 11.691C22 10.6799 22.5555 9.782 22.8666 8.99739C23.1777 8.21277 23.3333 7.43585 23.3333 6.66662C23.3333 5.33328 22.8888 4.22217 22 3.33328C21.1111 2.4444 20 1.99995 18.6666 1.99995C17.6136 1.99995 16.6405 2.29867 15.7474 2.89611C14.8542 3.49354 14.147 4.32475 13.6256 5.38971V5.38971H11.7077V5.38971C11.1777 4.3162 10.4683 3.48286 9.57944 2.8897C8.69055 2.29653 7.71961 1.99995 6.66662 1.99995C5.34183 1.99995 4.23286 2.4444 3.3397 3.33328C2.44653 4.22217 1.99995 5.33328 1.99995 6.66662C1.99995 7.43585 2.15551 8.21277 2.46662 8.99739C2.77773 9.782 3.33328 10.6799 4.13328 11.691C4.93328 12.7021 6.02217 13.891 7.39995 15.2576C8.77773 16.6243 10.5333 18.2717 12.6666 20.2V20.2M12.6666 11.1V11.1V11.1V11.1V11.1V11.1V11.1V11.1V11.1V11.1V11.1V11.1V11.1V11.1V11.1V11.1V11.1V11.1V11.1V11.1V11.1" fill="#061B0E"/>
</svg>
