<svg width="26" height="25" viewBox="0 0 26 25" fill="none" xmlns="http://www.w3.org/2000/svg">
<path d="M2.77217 10.6667C2.26933 10.6667 1.85253 10.5023 1.52177 10.1735C1.191 9.84472 1.02562 9.42891 1.02562 8.92608C1.02562 8.42324 1.19001 8.00644 1.51879 7.67567C1.84756 7.34491 2.26337 7.17952 2.76621 7.17952C3.26904 7.17952 3.68585 7.34391 4.01661 7.67269C4.34738 8.00147 4.51276 8.41728 4.51276 8.92011C4.51276 9.42295 4.34837 9.83975 4.01959 10.1705C3.69082 10.5013 3.27501 10.6667 2.77217 10.6667V10.6667M1.17948 24.0768V18.0769H0V13C0 12.7166 0.0958309 12.4792 0.287493 12.2875C0.479155 12.0958 0.716649 12 0.999976 12H4.5384C4.82173 12 5.05922 12.0958 5.25089 12.2875C5.44255 12.4792 5.53838 12.7166 5.53838 13V18.0769H4.3589V22.0769H15.7692V14.6666H13.1025C11.7042 14.6666 10.5214 14.1849 9.55384 13.2217C8.58633 12.2585 8.10257 11.0991 8.10257 9.74355C8.10257 8.66834 8.41283 7.70382 9.03334 6.84998C9.65385 5.99613 10.4513 5.35554 11.4256 4.92819C11.5761 3.50084 12.1692 2.32264 13.2051 1.39358C14.241 0.464528 15.429 0 16.7692 0C18.1093 0 19.2974 0.464528 20.3333 1.39358C21.3692 2.32264 21.9623 3.50084 22.1127 4.92819C23.0871 5.35554 23.8845 5.99613 24.505 6.84998C25.1256 7.70382 25.4358 8.66834 25.4358 9.74355C25.4358 11.0991 24.9521 12.2585 23.9845 13.2217C23.017 14.1849 21.8341 14.6666 20.4359 14.6666H17.7692V22.0769H24.4358V24.0768H1.17948V24.0768M13.1025 12.6666H20.4359C21.2718 12.6666 21.9807 12.3851 22.5628 11.8222C23.1448 11.2592 23.4359 10.5663 23.4359 9.74355C23.4359 9.08371 23.2427 8.49439 22.8564 7.97559C22.47 7.45678 21.9692 7.06661 21.3538 6.80507L20.2359 6.33328L20.1128 5.17433C20.0307 4.28373 19.6735 3.53201 19.041 2.91919C18.4085 2.30636 17.6512 1.99995 16.7692 1.99995C15.8871 1.99995 15.1299 2.30636 14.4974 2.91919C13.8649 3.53201 13.5076 4.28373 13.4256 5.17433L13.3025 6.33328L12.1846 6.80507C11.5692 7.06661 11.0683 7.45678 10.682 7.97559C10.2957 8.49439 10.1025 9.08371 10.1025 9.74355C10.1025 10.5663 10.3935 11.2592 10.9756 11.8222C11.5577 12.3851 12.2666 12.6666 13.1025 12.6666V12.6666M16.7692 7.33328V7.33328V7.33328V7.33328V7.33328V7.33328V7.33328V7.33328V7.33328V7.33328V7.33328V7.33328V7.33328V7.33328V7.33328V7.33328V7.33328V7.33328V7.33328" fill="#061B0E"/>
</svg>
